<svg id="Layer_1" data-name="Layer 1" xmlns="http://www.w3.org/2000/svg" xmlns:xlink="http://www.w3.org/1999/xlink" viewBox="0 0 1032.7 929.21"><defs><linearGradient id="White_Black_2" x1="344.12" y1="855.86" x2="607.03" y2="855.86" gradientUnits="userSpaceOnUse"><stop offset="0" stop-color="#fff"/><stop offset="1"/></linearGradient><linearGradient id="White_Black_2-2" x1="0" y1="267.26" x2="940.19" y2="267.26" xlink:href="#White_Black_2"/><clipPath id="clip-path" transform="translate(0 0)"><path d="M545.29,212.06c2.67,0-113.49,0-109.56-102.6,0,0-33.28,89.24,60.19,160.74,34.63,26.48,56.87,92.79-8.17,133.17-126.56,78.57-75.12,99.52-40.39,117.17,82.36,41.87,11.54,65.06,11.88,65.23,99.68-29,40.71-62,17.21-75.27-22.83-12.91-23-27.92-14.71-41.38-1.07,11.94,11.58,32.87,34.95,11.16-10.38,6-16.15,6.61-20,4.83-29.36-13.69,44.94-59.59,44.94-59.59,37.65-23.32,229.35-106.14,21.64-186,0,0-20-6.44-35.49-20.13,20.22,9.93,40.83,14.33,65.4,18.83,25.54,4.67,80.69,18.61,66.21,49.41C639.42,287.62,708.94,217.49,545.29,212.06Z" style="fill:#231f20;stroke:#231f20;stroke-miterlimit:10;stroke-width:0.25px"/></clipPath><linearGradient id="www.vectorfantasy.com12" x1="80.59" y1="641.76" x2="322.46" y2="641.76" gradientUnits="userSpaceOnUse"><stop offset="0" stop-color="#b76e79"/><stop offset="0.43" stop-color="snow"/><stop offset="1" stop-color="#b76e79"/></linearGradient><linearGradient id="www.vectorfantasy.com12-2" x1="273.69" y1="640.74" x2="556.5" y2="640.74" xlink:href="#www.vectorfantasy.com12"/><linearGradient id="www.vectorfantasy.com12-3" x1="586.19" y1="659.94" x2="893.18" y2="659.94" xlink:href="#www.vectorfantasy.com12"/><linearGradient id="www.vectorfantasy.com12-4" x1="804.53" y1="660.42" x2="874.15" y2="660.42" xlink:href="#www.vectorfantasy.com12"/><linearGradient id="New_Gradient_Swatch_1" x1="79.32" y1="639.23" x2="321.2" y2="639.23" xlink:href="#www.vectorfantasy.com12"/><linearGradient id="New_Gradient_Swatch_1-2" x1="272.43" y1="638.21" x2="555.23" y2="638.21" xlink:href="#www.vectorfantasy.com12"/><linearGradient id="New_Gradient_Swatch_1-3" x1="584.93" y1="657.41" x2="891.91" y2="657.41" xlink:href="#www.vectorfantasy.com12"/><linearGradient id="New_Gradient_Swatch_1-4" x1="803.27" y1="657.89" x2="872.89" y2="657.89" xlink:href="#www.vectorfantasy.com12"/></defs><title>blush</title><g style="opacity:0.85"><path d="M551.31,854.56c2-2.19,4.14-4.34,6.27-6.46s4.27-4.3,6.4-6.42l.29-.52a4.91,4.91,0,0,1,2.49-2.21c.85-.82,1.7-1.64,2.57-2.44.28-.36.55-.73.86-1.07a5,5,0,0,1,1.23-1.84,42.16,42.16,0,0,1,6.57-5.25c2.77-3.13,5.59-6.2,8.63-9.06a5.12,5.12,0,0,1,.94-1.14,39.15,39.15,0,0,1,4-3.16l.18-.14a33.47,33.47,0,0,1,3.11-2.12l1-.74.14-.19a32,32,0,0,1,2-2.65c.67-.93,1.36-1.87,2.12-2.77A32.23,32.23,0,0,1,604,802.9a28.25,28.25,0,0,1,2.85-3.59,6.41,6.41,0,0,1,.21-.67c-1.64,1.18-3.29,2.35-4.88,3.61s-3.44,2.69-5.17,4l-1,1a81.7,81.7,0,0,1-11.11,9.84,4.91,4.91,0,0,1-1.92,2.25l-2.72,1.8A5,5,0,0,1,578.6,823c-3.63,2.52-7.76,4.38-11.36,6.93q-13.4,13.65-26.78,27.32c-17,17.24-33.72,34.71-50.53,52.12l-8.13-7.74q34-34.47,68-69a5.27,5.27,0,0,1,1.85-2.47c1.12-.83,2.17-1.74,3.21-2.68q10-10.21,20-20.45l23.9-24.46-.27-.09a46.37,46.37,0,0,1-5.32,5c-.76.58-1.5,1.2-2.23,1.82a35.26,35.26,0,0,1-3.11,2.76,84.33,84.33,0,0,1-6.88,5.82,5.19,5.19,0,0,1-1.5,1.77c-9.25,7-17.8,15-27.36,21.52a4.49,4.49,0,0,1-1.56,1.4q-36.7,37.3-73.24,74.79l-19.86-18.9c-25.88-17.8-49.59-38.34-72-60.25a25,25,0,0,1-3.48-3.43l-.95-.95a46.1,46.1,0,0,1-9.8-7.69,76.68,76.68,0,0,1-13.29-9.91c-2.5-2.38-4.9-4.86-7.34-7.29h-.48l22.2,22.55,94.9,96.21c-2.32,2.36-4.62,4.72-6.94,7.09l-81.94-79.5a23,23,0,0,1-7.21-5.56,4.86,4.86,0,0,1-.92-.7,7.65,7.65,0,0,1-.65-.74l-.44-.35c-.06-.05-.1-.11-.15-.16-.9-.5-1.77-1.07-2.72-1.5a5.31,5.31,0,0,1-2.35-2.21,4.74,4.74,0,0,1-1.8-1.39c-5-6.12-12-9.83-17.95-14.88l.47.47,113.59,113,2.15,2.14,2.15-2.18,9-9.15,13.32,13.5,3.58,3.64A228,228,0,0,1,515,895.79c3.62-6.86,7.69-13.2,13.51-18.56a68,68,0,0,1,6.72-5.38A104.88,104.88,0,0,1,551.31,854.56Z" transform="translate(0 0)" style="fill:url(#White_Black_2)"/></g><path d="M589.87,132.45,705.33,243.53l28.91,27.72,29.06,27.59L821.39,354l29.1,27.54,29.22,27.4q28.86,27.09,57.88,54L909.33,490l-22.9,22.21q2.25-1,4.54-1.9a5.34,5.34,0,0,1,.79-1,28.11,28.11,0,0,1,6.7-5.14,24.2,24.2,0,0,1,5.67-6.08,79.35,79.35,0,0,1,8.5-5.38L940.19,463l-.61-.64q-27.72-28.95-55.72-57.6L855.94,376l-28-28.61-56.2-57.1-28.1-28.56L715.38,233.3,602.26,119.84C564.59,82,526.48,44.56,488.63,6.9L481.69,0,474.8,7,463.29,18.73l-8.71-8.58-2.7-2.66-2.65,2.7L336.92,124.45,224.92,239,1.4,468.59,0,470l1.43,1.4,64.8,63.08c-2.13-2.62-4.35-5.17-6.74-7.7-2.16-2.28-4.26-4.61-6.18-7.07a23.82,23.82,0,0,1-4.1-4.67,4.93,4.93,0,0,1-.23-.46,9.37,9.37,0,0,1-1.93-2.13,5.09,5.09,0,0,1-.61-.5,5,5,0,0,1-1.33-2.59l-1.53-1.84L5.68,470,229.84,243.84l112.54-114L452,18.19l6,5.92L418.66,64.17q-28.07,28.58-56,57.3L251.07,236.41l-55.75,57.52-55.56,57.71Q112,380.47,84.35,409.5l-55.25,58-3.51,3.68,1.21,1.15a5.09,5.09,0,0,1,1.92,1.28c4.43,4.62,9.6,8.24,14.52,12.31.39.32.78.66,1.16,1a4.24,4.24,0,0,1,2.81.94,66.41,66.41,0,0,1,10.86,10.86c.78.61,1.53,1.25,2.22,1.91a6.31,6.31,0,0,1,1.75,1c2.45,2,4.65,4.26,6.9,6.47a4.15,4.15,0,0,1,1,.47A45.51,45.51,0,0,1,76.88,514c2.28,1.41,4.55,2.86,6.78,4.43a89,89,0,0,1,8.26,6.73,4.48,4.48,0,0,1,3.52,3.23l.13.12c1.25.86,2.5,1.74,3.73,2.63-2.23-2.26-4.47-4.5-6.7-6.76L39.79,471.08l53.49-52.8q28.57-28.09,56.87-56.44l56.71-56.57,56.52-56.76L376.32,134.86q28.29-28.35,56.29-57L472,37.79l91.75,89.85L678.5,239.44,793.5,351l115.06,111-32.62,32.52a109.78,109.78,0,0,1-7,9.72l40.63-42.25L796.1,348.34l-113.58-113L568.69,122.59,477.22,32.46l4.71-4.79C517.89,62.62,553.69,97.72,589.87,132.45Z" transform="translate(0 0)" style="fill:url(#White_Black_2-2)"/><g id="LWPOLYLINE"><path d="M448.44,313.93a9.18,9.18,0,0,0,8.37,5.45A11.38,11.38,0,0,0,448.44,313.93Z" transform="translate(0 0)" style="fill:#231f20"/></g><g id="ARC"><path d="M478.53,313.93a11.4,11.4,0,0,0-8.37,5.45" transform="translate(0 0)" style="fill:#231f20"/></g><g id="LWPOLYLINE-2" data-name="LWPOLYLINE"><path d="M463.52,339.33h0a12.51,12.51,0,0,0-8.62-1.28,18.43,18.43,0,0,0-6.47,2.75c-1.09.67-2.15,1.4-3.18,2.18a22.51,22.51,0,0,1-9.49,4,23.6,23.6,0,0,0,14.42-1.51,15.66,15.66,0,0,1,11.71.27,5.19,5.19,0,0,0,1.65.36,5.25,5.25,0,0,0,1.65-.36,15.66,15.66,0,0,1,11.71-.27A23.59,23.59,0,0,0,491.29,347a25.24,25.24,0,0,1-9.46-4.09c-1.06-.72-2.14-1.42-3.22-2.11a18.38,18.38,0,0,0-6.46-2.75,12.54,12.54,0,0,0-8.63,1.28h0" transform="translate(0 0)" style="fill:#d989a4"/></g><path id="R" d="M381,255.27s8.08,1.17,14-3.51c-4-2.27-7.4-6.21-9.73-12.7,0,0,6.53,10.37,23.76,9.45,1.78-.09,4.19-.29,6.84-.36h-.08c-9.58.28-27.75-2.67-31.84-19.07,0,0,5.54,13.18,34.54,16.67,7.28.88,14.51,4.34,16.79,9.36a8.44,8.44,0,0,0-3.27-2,6.53,6.53,0,0,0-7.35,2c-2.57,3.12-7.12,7.34-13,7.56,0,0,6.08-.89,9.36-9.08A35.86,35.86,0,0,1,390.47,260s9.36-.76,11.42-6.15C399.43,255.18,391.08,260.27,381,255.27Z" transform="translate(0 0)" style="fill:#231f20"/><g id="LWPOLYLINE-3" data-name="LWPOLYLINE"><path d="M443.62,225.1q-19.38-6.1-38.9-11.71a38.59,38.59,0,0,0-19.59-.14,52.39,52.39,0,0,0-10.91,4.15,56.71,56.71,0,0,1,19.34-2.09,16.87,16.87,0,0,1,3.66.55,62.2,62.2,0,0,1,11.66,4.4q17.12,8.36,33.63,18a25.09,25.09,0,0,0,1.11-13.11" transform="translate(0 0)" style="fill:#231f20"/></g><path d="M417.14,363a94.66,94.66,0,0,0,18.08,18.66c8.21,6.73,17.85,12.69,28.27,12.69s19.7-6.47,28.27-12.69c4.39-3.18,12.32-11.45,15.59-15.6-2.3,5.17-12,16.5-15,19.19-8.87,7.42-17.53,14.55-28.88,14.55s-22-7.53-30.86-15a67.1,67.1,0,0,1-8.62-9.12,193.46,193.46,0,0,1-9.24,49.18c-7.07,20.73-18.06,38.32-36.6,52.71,16.8-19.1,24.86-31,30.46-49.66C418.41,395.31,419.57,374.07,417.14,363Z" transform="translate(0 0)" style="fill:#231f20"/><g id="LWPOLYLINE-4" data-name="LWPOLYLINE"><path d="M463.49,364.91a25.54,25.54,0,0,1-7.4-.4,21.34,21.34,0,0,1-13.64-9.59,35.13,35.13,0,0,0-6.72-7.94,78.71,78.71,0,0,1,8.55-.44,23.26,23.26,0,0,1,7.62,1.19l3.87,1.35a25.16,25.16,0,0,0,5.3.93c.81.06,1.63.1,2.44.13s1.62-.07,2.43-.12a25.14,25.14,0,0,0,5.31-.93c1.29-.46,2.58-.91,3.87-1.34a23,23,0,0,1,7.62-1.19,81.33,81.33,0,0,1,8.55.45,35,35,0,0,0-6.73,7.94,21.34,21.34,0,0,1-13.65,9.57,25.54,25.54,0,0,1-7.4.39" transform="translate(0 0)" style="fill:#d989a4"/></g><g id="LWPOLYLINE-5" data-name="LWPOLYLINE"><path d="M483.31,352.51a22.73,22.73,0,0,1-12.61,7.86,12.2,12.2,0,0,1-4.62.31,1.38,1.38,0,0,1,.17-2.7,24.37,24.37,0,0,0,4-.37,31.84,31.84,0,0,0,13.35-6.06A1.47,1.47,0,0,1,483.31,352.51Z" transform="translate(0 0)" style="fill:#fff"/></g><g id="LWPOLYLINE-6" data-name="LWPOLYLINE"><path d="M451.05,341.62a12.63,12.63,0,0,1,2.34-1.27,12.32,12.32,0,0,1,5.19-.87,6.17,6.17,0,0,1,3.35,1.73,14.13,14.13,0,0,0-11.6,1.1A3.36,3.36,0,0,1,451.05,341.62Z" transform="translate(0 0)" style="fill:#fff"/></g><g id="LWPOLYLINE-7" data-name="LWPOLYLINE"><path d="M476,341.62a12,12,0,0,0-7.53-2.14,6.2,6.2,0,0,0-3.35,1.73,14.15,14.15,0,0,1,11.61,1.1A3.4,3.4,0,0,0,476,341.62Z" transform="translate(0 0)" style="fill:#fff"/></g><g id="ELLIPSE"><path d="M457.19,358.54c-.08.76.77,1.48,1.9,1.61s2.12-.37,2.2-1.13-.77-1.48-1.91-1.61-2.11.38-2.19,1.13Z" transform="translate(0 0)" style="fill:#fff"/></g><g id="LWPOLYLINE-8" data-name="LWPOLYLINE"><path d="M449.4,355.1a15.73,15.73,0,0,0,7.66,4.69,1.34,1.34,0,0,1-.45-.55,1.42,1.42,0,0,1,.61-1.85,18.77,18.77,0,0,1-8-3,.63.63,0,0,0,0,.27A1.14,1.14,0,0,0,449.4,355.1Z" transform="translate(0 0)" style="fill:#fff"/></g><g id="LWPOLYLINE-9" data-name="LWPOLYLINE"><path d="M366.28,260.85a13,13,0,0,1,2.33,11.79,6.53,6.53,0,0,0,3.84,7.07,8.26,8.26,0,0,1-5.21-8.67,17,17,0,0,0-2.32-8.56,27.44,27.44,0,0,1-5.27-27.25A32,32,0,0,0,366.28,260.85Z" transform="translate(0 0)" style="fill:#231f20"/></g><path d="M545.29,212.06c2.67,0-113.49,0-109.56-102.6,0,0-33.28,89.24,60.19,160.74,34.63,26.48,56.87,92.79-8.17,133.17-126.56,78.57-75.12,99.52-40.39,117.17,82.36,41.87,11.54,65.06,11.88,65.23,99.68-29,40.71-62,17.21-75.27-22.83-12.91-23-27.92-14.71-41.38-1.07,11.94,11.58,32.87,34.95,11.16-10.38,6-16.15,6.61-20,4.83-29.36-13.69,44.94-59.59,44.94-59.59,37.65-23.32,229.35-106.14,21.64-186,0,0-20-6.44-35.49-20.13,20.22,9.93,40.83,14.33,65.4,18.83,25.54,4.67,80.69,18.61,66.21,49.41C639.42,287.62,708.94,217.49,545.29,212.06Z" transform="translate(0 0)" style="fill:#231f20"/><g style="clip-path:url(#clip-path)"><image width="3000" height="2000" transform="translate(11.71 79.09) scale(0.34 0.41)" xlink:href="../../../../../../../../Users/dev/Downloads/golden-particles-blurred-decorative-background/2631001.jpg"/></g><path d="M545.29,212.06c2.67,0-113.49,0-109.56-102.6,0,0-33.28,89.24,60.19,160.74,34.63,26.48,56.87,92.79-8.17,133.17-126.56,78.57-75.12,99.52-40.39,117.17,82.36,41.87,11.54,65.06,11.88,65.23,99.68-29,40.71-62,17.21-75.27-22.83-12.91-23-27.92-14.71-41.38-1.07,11.94,11.58,32.87,34.95,11.16-10.38,6-16.15,6.61-20,4.83-29.36-13.69,44.94-59.59,44.94-59.59,37.65-23.32,229.35-106.14,21.64-186,0,0-20-6.44-35.49-20.13,20.22,9.93,40.83,14.33,65.4,18.83,25.54,4.67,80.69,18.61,66.21,49.41C639.42,287.62,708.94,217.49,545.29,212.06Z" transform="translate(0 0)" style="fill:none;stroke:#231f20;stroke-miterlimit:10;stroke-width:0.25px"/><path d="M243.79,644.91c19.44-7.2,49.53-26.17,48.12-59.7-.32-10.19-4.71-18.65-11.92-25.39a56.45,56.45,0,0,1,10.35-4.7s10.65-3.14,19.43,0c8.46,3.44,6.11,12.22,6.11,12.22-.15,2,.94,3.92,2.67,4.23s3.45-1.25,3.76-3.29a1,1,0,0,0,.15-.63v-.31a17.3,17.3,0,0,0-4.54-11.44c-4.08-4.39-10.19-6.74-20.06-6.43-2.51,0-11.28.94-22.88,6.43-10.66-7.37-25.39-11.91-42.31-13.17-78.52-6.26-121.93,53.76-124.44,57.36C78,639.59,80.65,670.93,80.65,670.93a42.55,42.55,0,0,0,3.76,17.4c3.29,6.26,11.75,10.5,19.12,10.5,9.25,0,19.75-1.88,33.22-13.64,10.35-9.09,18.5-21.63,24.14-33.54,0,0,8.3-15.35,11.44-28.68a4.47,4.47,0,0,0,.31-1.41c.32-2.82-1.25-5.17-3.45-5.48s-4.07,1.88-4.38,4.7v.94a92.78,92.78,0,0,1-4.71,22.1c-5.48,13-14.26,28-26,38.39-9.25,8.15-20.84,12.85-29,12.23C99,694,96.16,689,94.91,686.29c-3.76-8.15-3.45-19.9.16-32.28a33.19,33.19,0,0,1,1.41-4.39c1.25-3.61,2.66-7.21,4.07-10.66a211,211,0,0,1,19.28-33.07c16.77-23.66,57.67-62.69,112.52-59.24Q257,548.3,269,558.88a105.25,105.25,0,0,0-18.33,13c-23.35,20.69-39.34,49.84-41.06,53.13-1.26,2.35-19.59,34.17-25.39,43.73-22.41,37.14-35.73,53.59-46.08,60.8a26,26,0,0,1-15.2,4.23c-13.48-1.41-15.36-10.81-15.51-11.44a2,2,0,0,0-1.88-2,2.07,2.07,0,0,0-2,2,10.13,10.13,0,0,0,.31,3.3c.47,2,3.61,10.5,21.94,13.63,41.06,6,82.59-1.72,107.67-20.53,26.48-19.75,31.81-42.31,27.11-57.83A24,24,0,0,0,243.79,644.91Zm-25.07,70.53c-31,20.53-57.83,22.25-78.05,20.84,17.55-6.58,36.83-28.83,76-98.57,3.45-6.12,6.9-11.91,10.19-17.24,17.86-30.88,34.16-47.65,46.86-56.58,4.38,5.8,6.73,12.85,7,21.47.78,24-18.65,51.41-48.58,58.62a1.93,1.93,0,0,0-1.57,2.19,2,2,0,0,0,1.72,1.72c13.32-.31,18.49,5.8,19.75,12.07C255.08,673.12,243.64,699,218.72,715.44Z" transform="translate(0 0)" style="stroke:#010101;stroke-miterlimit:10;fill:url(#www.vectorfantasy.com12)"/><path d="M555.5,661.68a1.78,1.78,0,0,0-2.67.79c-7.05,12.53-14.42,21.31-21.63,26.95-11.91,9.09-26.79,8.15-19.9-6.27,3.76-7.67,11.28-17.7,17.24-26.48,13.16-18.81,13.79-28.21,10.81-32.75-1.72-2.83-5.17-3.45-8.62-3.45-11.59,0-24.29,11.28-34.63,23.19l34.63-61.9H517.88l-51.47,92c-6.53,9.41-14.54,17-27.51,20.52,6.89-5.8,11.28-16,12.38-30.24l.31-2.51c1.1-16.46,2.35-35.73,15.52-35.73h.62a2,2,0,0,0,0-4.08c-32.75,0-43.56,18.65-54.22,37.77-.53.93-1,1.75-1.45,2.64a2.24,2.24,0,0,0-.27.34c-5.8,10.5-12.07,20.06-18.65,26.33-6.27,6-11.44,7.36-15.2,6.74-5.65-.95-6.12-6.9-5.65-9.72.94-5.33,4.39-13.17,10.35-24.14l22.25-40H392l-23,41.06a16.74,16.74,0,0,1-1.25,2.35c-5.17,9.4-9.72,17.87-15.67,23.67-6.43,6-11.6,7.36-15.2,6.74-5.65-.95-6.27-6.9-5.8-9.72.94-5.33,4.39-13.17,10.34-24.14l22.25-40H350.82l-22.88,41.06c-1.12,2-2.09,3.84-2.95,5.66s-2,3.39-3,5c-3.76,6.27-16.45,25.7-31.34,21.78-5.49-1.41-7.06-5.64-6.43-9.24.94-5.49,4.39-13.33,10.35-24.3l11.28-20.84c28.52-16.92,47.8-41.06,47.33-53,0-3.13-1.41-5.48-3.92-6.43-1.72-.62-9.87-2.5-21.78,8.47-11.13,10.18-20.69,24.92-26,35.26l-13,24.45-7.36,13.16c-13.95,24.29-6.74,37.77,9.71,37.77a30,30,0,0,0,21.94-8.46,62.5,62.5,0,0,0,7.92-9.28c-1,11.47,5.86,17.58,17,17.58,9.56,0,17.4-7.52,24.13-17.55-.94,11.44,6,17.55,16.93,17.55,15.2,0,26.8-18.49,36.51-35.89h0a30.27,30.27,0,0,0,1.72-3c8.46-15.2,16.45-29,34.79-33.85-7.05,6.89-11,19.74-12.38,36-1.57,18.81-9.72,31.34-17.87,32a11.72,11.72,0,0,1-7.52-1.56,11,11,0,0,0,5.17-5.18c2.82-4.85,1.1-8.46-1.57-9.4-3-.78-6.58.63-9.09,4.23-.47.63-3,4.7-1.25,9.09a14.87,14.87,0,0,0,1.88,2.82q4.23,4.71,12.23,4.7h.47c16.31-.08,27.5-4.44,36-11.19l-5.56,9.94h12.85c14.1-25.07,14.26-25.23,14.26-25.23,4.86-8.78,17.71-29.31,35.73-42.47,4.39-3.14,8.46-5.33,12.54-6,1.1-.15,3.13-.31,4.07.79,1.57,1.72-.31,5.48-.62,6-2.82,6.11-9.25,15-14.73,22.25-14.58,19.12-20.53,32-16.15,40.28,1.73,3.14,6.27,5.49,13.32,5.49,15.68,0,29.63-12.23,42.79-35.89A2,2,0,0,0,555.5,661.68ZM315.88,622.5c10.65-19.12,18-32,25.07-36.2,6.27-3.76,8.31-.47,8.31,1.57.31,8.78-14.73,29.46-39.49,45.92Z" transform="translate(0 0)" style="stroke:#010101;stroke-miterlimit:10;fill:url(#www.vectorfantasy.com12-2)"/><path d="M892.59,553.71c-.31-.32-3.76-3.92-13-3.92-8,0-20.37,2.66-31.34,7.68-14.57,6.73-36.83,20.68-59.71,48.89-13,16.14-24.13,32-37.92,54.85,0,0-.79,1.41-1.42,1.1s0-1.57,0-1.57c33.54-81.49-2.66-99.83-11.12-105.94-7.37-4.39-17.09-7.36-29.78-7.68-23.19-.62-48.42,7.53-70.52,25.24-51.56,41.53-51.56,91.52-51.56,91.52-.16,6.58.94,12.54,3.29,17.24,3.13,6.58,8.93,10.18,17.71,11,.78,0,2.19.15,3.29.15,10.66.32,21.16-4.38,31.19-12.85,10.5-8.77,19-21,24.91-32.75,0,0,8.62-15.2,12.23-28.37,1.1-4.7-.63-6.74-3-7-2.66-.16-4.54,1.41-4.54,5.49a87,87,0,0,1-5.18,21.94c-5.79,13-15,27.58-27,37.61-10.19,8.62-20.84,13.48-32,10.66-6.74-1.73-24.14-16.46,3.92-65A179.9,179.9,0,0,1,624,603.23c21.15-28.21,56.73-50.93,86.51-49.84,7.2.16,16,.63,23.82,4.86,0,0,9.71,4.23,16.76,16.3l-4.23,7.36c-5.17,9.25-17.71,32.13-33.53,64.26C692.62,688,666.13,733.46,631,734.56c-16.77.62-17.08-11.91-17.08-12.38a1.81,1.81,0,0,0-1.88-1.88,1.89,1.89,0,0,0-2,2s-.31,16.15,20.06,16.77c40.12,1.1,71-40.27,91.68-79.77a472.94,472.94,0,0,0,30.56-74.12,55.24,55.24,0,0,0,1.41-5.49c4.39,10.19,6.58,24.45,2,44.2C741.2,688,718.32,712.46,709.7,723.43c-3.29,3.45-2,7.05-.16,8,2.67,1.1,4.24,0,6.43-2.35,7.37-7.83,19.43-30.87,32.28-53.75,15.68-28.21,37.93-59.24,38.24-59.87l5.18-6.58c17.08-21,34.79-35.26,50.93-44a28.78,28.78,0,0,0-2.82,2.35c-14.73,10.82-32,28.37-48,57.52-33.54,60.65-53.28,145.28,25.7,148.1,19.91-.32,34.33-5.33,46.08-11.91,0-.16,13.48-8.31,21.94-15.36,3.76-3,3.76-6.74,1.88-8-1.72-1.26-4.54-.95-6.27,1.56a67.37,67.37,0,0,1-25.54,21,38.78,38.78,0,0,1-5.18,2.2A81.63,81.63,0,0,1,816,767.47c-64.57-7.05-36.83-94.35-11.6-140.73,29.31-54.07,55.48-68.18,68.64-71.94,8.31-2.35,13.48-.31,14.73.32,1.41.62,2,1.25,2,1.41a2,2,0,1,0,2.82-2.82Z" transform="translate(0 0)" style="stroke:#010101;stroke-miterlimit:10;fill:url(#www.vectorfantasy.com12-3)"/><path d="M821.28,664.5c14-.78,33.69-4.07,43.25-22.72,3.14-6.27,2.67-12.22,0-16-3.76-5.65-10.81-5.33-12.38-5.33-1.25,0-19.74.62-37,29.3-5.8,9.72-9.09,17.4-10.35,26.18-1.25,9.4.47,26.95,27.74,24.13,14.73-1.57,27.9-12.54,41.38-36.36a2,2,0,0,0-3.45-1.88c-12.85,22.57-24.92,32.91-38.24,33.54-11.28.63-19.9-6.74-13-26C819.87,667.8,820.5,666.07,821.28,664.5Zm32.6-39c5.17,0,7.83,5.64,3.6,14.73-7.05,14.89-24,19.12-34.16,20.22C831.15,647,845.88,625.48,853.88,625.48Z" transform="translate(0 0)" style="stroke:#010101;stroke-miterlimit:10;fill:url(#www.vectorfantasy.com12-4)"/><path d="M242.53,642.39c19.43-7.21,49.52-26.18,48.11-59.71-.31-10.19-4.7-18.65-11.91-25.39a56.7,56.7,0,0,1,10.34-4.7s10.66-3.14,19.44,0c8.46,3.44,6.11,12.22,6.11,12.22-.16,2,.94,3.92,2.66,4.23s3.45-1.25,3.76-3.29a.94.94,0,0,0,.16-.63v-.31a17.35,17.35,0,0,0-4.54-11.44c-4.08-4.39-10.19-6.74-20.06-6.43-2.51,0-11.29.95-22.89,6.43-10.65-7.37-25.38-11.91-42.31-13.16C152.88,533.94,109.47,594,107,597.56c-30.25,39.5-27.59,70.84-27.59,70.84a42.39,42.39,0,0,0,3.77,17.4c3.29,6.27,11.75,10.5,19.12,10.5,9.24,0,19.74-1.88,33.22-13.64,10.34-9.09,18.49-21.62,24.13-33.54,0,0,8.31-15.35,11.44-28.67a4.49,4.49,0,0,0,.32-1.42c.31-2.82-1.26-5.17-3.45-5.48-2.19-.16-4.07,1.88-4.39,4.7v.94a92.38,92.38,0,0,1-4.7,22.1c-5.48,13-14.26,28.05-26,38.4-9.24,8.14-20.84,12.85-29,12.22-6.11-.47-8.93-5.49-10.18-8.15-3.77-8.15-3.45-19.9.15-32.28a36.45,36.45,0,0,1,1.41-4.39c1.26-3.61,2.67-7.21,4.08-10.66a211.36,211.36,0,0,1,19.27-33.07c16.77-23.66,57.68-62.68,112.53-59.24q24.67,1.65,36.67,12.23a105.23,105.23,0,0,0-18.34,13c-23.35,20.68-39.33,49.83-41.06,53.12-1.25,2.35-19.59,34.17-25.39,43.73-22.41,37.14-35.73,53.6-46.07,60.8a26,26,0,0,1-15.2,4.24c-13.48-1.41-15.36-10.82-15.52-11.44a1.94,1.94,0,0,0-1.88-2,2.07,2.07,0,0,0-2,2,10.07,10.07,0,0,0,.31,3.29c.47,2,3.6,10.5,21.94,13.63,41.06,6,82.59-1.72,107.66-20.53,26.49-19.75,31.82-42.31,27.12-57.83A24,24,0,0,0,242.53,642.39Zm-25.08,70.52c-31,20.53-57.83,22.25-78,20.84,17.55-6.58,36.83-28.83,76-98.57,3.44-6.12,6.89-11.91,10.18-17.24,17.87-30.88,34.17-47.64,46.86-56.58,4.39,5.8,6.74,12.85,7.05,21.47.79,24-18.65,51.41-48.58,58.62a2,2,0,0,0-1.57,2.19,2,2,0,0,0,1.73,1.72c13.32-.31,18.49,5.8,19.74,12.07C253.81,670.59,242.37,696.45,217.45,712.91Z" transform="translate(0 0)" style="fill:url(#New_Gradient_Swatch_1)"/><path d="M554.23,659.15a1.77,1.77,0,0,0-2.66.79c-7.05,12.54-14.42,21.31-21.63,26.95C518,696,503.14,695,510,680.62c3.76-7.67,11.28-17.7,17.24-26.48,13.16-18.81,13.79-28.21,10.81-32.75-1.72-2.83-5.17-3.45-8.62-3.45-11.6,0-24.29,11.28-34.63,23.19l34.63-61.9H516.62l-51.47,92c-6.54,9.4-14.54,17-27.51,20.51,6.89-5.8,11.28-16,12.38-30.24l.31-2.51c1.1-16.46,2.35-35.73,15.51-35.73h.63a2,2,0,0,0,0-4.08c-32.75,0-43.57,18.65-54.22,37.77-.53.93-1,1.75-1.46,2.64l-.27.34c-5.79,10.5-12.06,20.06-18.64,26.33-6.27,6-11.45,7.36-15.21,6.74-5.64-.94-6.11-6.9-5.64-9.72.94-5.33,4.39-13.16,10.34-24.14l22.26-40H390.78l-23,41.06a16.2,16.2,0,0,1-1.25,2.35c-5.18,9.41-9.72,17.87-15.68,23.67-6.42,6-11.59,7.36-15.2,6.74-5.64-.94-6.27-6.9-5.8-9.72.94-5.33,4.39-13.16,10.35-24.14l22.25-40H349.56l-22.88,41.06c-1.12,2-2.09,3.83-2.95,5.65s-2,3.4-3,5c-3.77,6.27-16.46,25.7-31.35,21.78-5.48-1.41-7.05-5.64-6.42-9.24.94-5.49,4.38-13.32,10.34-24.3l11.28-20.84c28.53-16.92,47.8-41.06,47.33-53,0-3.13-1.41-5.48-3.91-6.43-1.73-.62-9.88-2.5-21.79,8.47-11.13,10.18-20.69,24.92-26,35.26l-13,24.45-7.37,13.16c-13.95,24.29-6.74,37.77,9.72,37.77a30,30,0,0,0,21.94-8.46,63,63,0,0,0,7.92-9.28c-1,11.47,5.86,17.58,17,17.58,9.56,0,17.39-7.52,24.13-17.55-.94,11.44,6,17.55,16.93,17.55,15.2,0,26.8-18.49,36.51-35.88h0a28.25,28.25,0,0,0,1.71-3c8.47-15.2,16.46-29,34.8-33.85-7.06,6.89-11,19.74-12.39,36-1.56,18.81-9.71,31.35-17.86,32a11.72,11.72,0,0,1-7.52-1.56,11.12,11.12,0,0,0,5.17-5.18c2.82-4.85,1.1-8.46-1.57-9.4-3-.78-6.58.63-9.09,4.23-.47.63-3,4.7-1.25,9.09a14.41,14.41,0,0,0,1.88,2.82q4.23,4.71,12.22,4.7h.47c16.32-.07,27.51-4.44,36-11.19L451,696.61h12.86c14.1-25.07,14.26-25.23,14.26-25.23,4.86-8.78,17.71-29.31,35.73-42.47,4.39-3.14,8.46-5.33,12.54-6,1.09-.15,3.13-.31,4.07.79,1.57,1.72-.31,5.48-.63,6-2.82,6.11-9.24,15-14.73,22.26-14.57,19.12-20.53,32-16.14,40.27,1.72,3.14,6.27,5.49,13.32,5.49,15.67,0,29.62-12.23,42.79-35.89A2,2,0,0,0,554.23,659.15ZM314.61,620c10.66-19.12,18-32,25.08-36.21C346,580,348,583.3,348,585.34c.31,8.78-14.74,29.46-39.5,45.92Z" transform="translate(0 0)" style="fill:url(#New_Gradient_Swatch_1-2)"/><path d="M891.33,551.18c-.32-.32-3.76-3.92-13-3.92-8,0-20.37,2.66-31.34,7.68-14.58,6.74-36.83,20.68-59.71,48.89-13,16.15-24.14,32-37.93,54.85,0,0-.78,1.42-1.41,1.1s0-1.57,0-1.57c33.54-81.49-2.66-99.83-11.13-105.94-7.36-4.38-17.08-7.36-29.77-7.68-23.2-.62-48.43,7.53-70.53,25.24-51.56,41.53-51.56,91.52-51.56,91.52-.15,6.58.94,12.54,3.29,17.24,3.14,6.58,8.94,10.18,17.71,11,.79,0,2.2.16,3.29.16,10.66.31,21.16-4.39,31.19-12.86,10.5-8.77,19-21,24.92-32.75,0,0,8.62-15.2,12.22-28.37,1.1-4.7-.62-6.74-3-7-2.67-.16-4.55,1.41-4.55,5.49a87.26,87.26,0,0,1-5.17,21.94c-5.8,13-15,27.58-27,37.61-10.18,8.62-20.84,13.48-32,10.66-6.74-1.73-24.13-16.46,3.92-65a183.08,183.08,0,0,1,12.85-18.65c21.16-28.21,56.73-50.93,86.51-49.84,7.21.16,16,.63,23.82,4.86,0,0,9.72,4.23,16.77,16.3l-4.23,7.37c-5.17,9.24-17.71,32.12-33.54,64.25-20.69,41.84-47.17,87.29-82.28,88.39-16.76.63-17.08-11.91-17.08-12.38a1.81,1.81,0,0,0-1.88-1.88,1.9,1.9,0,0,0-2,2s-.31,16.14,20.06,16.76c40.12,1.1,71-40.27,91.68-79.77a472.94,472.94,0,0,0,30.56-74.12c.63-2,1.1-3.92,1.42-5.49,4.38,10.19,6.58,24.45,2,44.2-14.57,64.09-37.45,88.54-46.07,99.51-3.29,3.45-2,7.05-.16,8,2.67,1.1,4.23,0,6.43-2.35,7.36-7.83,19.43-30.87,32.28-53.75,15.67-28.21,37.93-59.24,38.24-59.87l5.17-6.58c17.08-21,34.79-35.26,50.93-44a28.78,28.78,0,0,0-2.82,2.35c-14.73,10.82-32,28.37-48,57.52-33.54,60.65-53.29,145.28,25.7,148.1,19.9-.32,34.32-5.33,46.07-11.91,0-.16,13.48-8.31,21.95-15.36,3.76-3,3.76-6.74,1.88-8s-4.55-.94-6.27,1.56a67.36,67.36,0,0,1-25.55,21,39.19,39.19,0,0,1-5.17,2.2,81.68,81.68,0,0,1-34.48,5.17c-64.57-7.05-36.83-94.35-11.59-140.73,29.3-54.07,55.47-68.18,68.64-71.94,8.3-2.35,13.47-.31,14.73.32s2,1.25,2,1.41a2,2,0,0,0,2.82-2.82Z" transform="translate(0 0)" style="fill:url(#New_Gradient_Swatch_1-3)"/><path d="M820,662c13.94-.79,33.69-4.08,43.25-22.73,3.13-6.27,2.66-12.22,0-16-3.76-5.65-10.81-5.33-12.38-5.33-1.26,0-19.75.62-37,29.3-5.8,9.72-9.09,17.4-10.34,26.18-1.25,9.4.47,27,27.74,24.13C846,696,859.2,685,872.67,661.19a2,2,0,0,0-3.44-1.88c-12.86,22.57-24.92,32.91-38.25,33.54-11.28.63-19.9-6.74-13-26C818.6,665.27,819.23,663.54,820,662Zm32.59-39c5.17,0,7.84,5.64,3.61,14.73-7.05,14.89-24,19.12-34.17,20.22C829.89,644.42,844.62,623,852.61,623Z" transform="translate(0 0)" style="fill:url(#New_Gradient_Swatch_1-4)"/><path d="M266.91,729.58c2.14-1.14,5.28-3.69,5.28-7.19,0-4.78-4.41-8.47-9.78-8.47H251.8a.87.87,0,0,0-.87.87v30.13a.87.87,0,0,0,.87.86h11.29c5.41,0,9.92-3.68,9.92-8.78C273,732.81,269.32,730.58,266.91,729.58ZM258,720.47h3.55a3.09,3.09,0,0,1,3.18,3.1,3.24,3.24,0,0,1-3.18,3.28H258Zm4.14,18.8H258v-6.51h3.68c1.78,0,3.73,1.37,3.73,3.19A3.3,3.3,0,0,1,262.18,739.27Z" transform="translate(0 0)" style="fill:#010101;stroke:#010101;stroke-miterlimit:10"/><path d="M307.61,713.92H288.76a.86.86,0,0,0-.86.87v30.13a.86.86,0,0,0,.86.86h18.85a.86.86,0,0,0,.86-.86v-5a.86.86,0,0,0-.86-.87H295V733h10.38a.87.87,0,0,0,.86-.87v-5a.89.89,0,0,0-.86-.86H295v-5.65h12.61a.86.86,0,0,0,.86-.86v-5A.86.86,0,0,0,307.61,713.92Z" transform="translate(0 0)" style="fill:#010101;stroke:#010101;stroke-miterlimit:10"/><path d="M335.83,714a.89.89,0,0,0-.77-.5h-.45a.92.92,0,0,0-.78.5L319.58,744.6a.81.81,0,0,0,.78,1.18h5a1.67,1.67,0,0,0,1.63-1.09l1.64-3.64H341l1.64,3.6c.41.86.78,1.13,1.6,1.13h5.05a.8.8,0,0,0,.77-1.18Zm-4.46,20.89,3.42-7.51h0l3.46,7.51Z" transform="translate(0 0)" style="fill:#010101;stroke:#010101;stroke-miterlimit:10"/><path d="M387,713.92h-5.6a.86.86,0,0,0-.86.87v18.43a5.65,5.65,0,1,1-11.29,0V714.79a.86.86,0,0,0-.86-.87h-5.6a.9.9,0,0,0-.87.87v18.79a13,13,0,0,0,25.95,0V714.79A.9.9,0,0,0,387,713.92Z" transform="translate(0 0)" style="fill:#010101;stroke:#010101;stroke-miterlimit:10"/><path d="M422.1,713.92H401.89a.86.86,0,0,0-.86.87v5a.86.86,0,0,0,.86.86h6.51v24.31a.89.89,0,0,0,.86.86h5.47a.89.89,0,0,0,.86-.86V720.61h6.51a.87.87,0,0,0,.87-.86v-5A.87.87,0,0,0,422.1,713.92Z" transform="translate(0 0)" style="fill:#010101;stroke:#010101;stroke-miterlimit:10"/><path d="M460.66,713.92h-5.92a.85.85,0,0,0-.73.41l-6.32,9.33-6.33-9.33a.93.93,0,0,0-.73-.41h-5.92a.84.84,0,0,0-.72,1.32L444,730.44v14.48a.87.87,0,0,0,.87.86h5.42a.89.89,0,0,0,.86-.86V730.4l10.2-15.16A.84.84,0,0,0,460.66,713.92Z" transform="translate(0 0)" style="fill:#010101;stroke:#010101;stroke-miterlimit:10"/><path d="M509.28,729.58c2.14-1.14,5.28-3.69,5.28-7.19,0-4.78-4.42-8.47-9.79-8.47h-10.6a.87.87,0,0,0-.87.87v30.13a.87.87,0,0,0,.87.86h11.28c5.42,0,9.93-3.68,9.93-8.78C515.38,732.81,511.69,730.58,509.28,729.58Zm-8.88-9.11H504a3.1,3.1,0,0,1,3.19,3.1,3.25,3.25,0,0,1-3.19,3.28H500.4Zm4.14,18.8H500.4v-6.51h3.69c1.77,0,3.73,1.37,3.73,3.19A3.3,3.3,0,0,1,504.54,739.27Z" transform="translate(0 0)" style="fill:#010101;stroke:#010101;stroke-miterlimit:10"/><path d="M542.42,714a.91.91,0,0,0-.77-.5h-.46a.89.89,0,0,0-.77.5L526.17,744.6a.8.8,0,0,0,.77,1.18h5a1.69,1.69,0,0,0,1.64-1.09l1.64-3.64h12.38l1.64,3.6c.41.86.77,1.13,1.59,1.13h5a.8.8,0,0,0,.78-1.18ZM538,734.86l3.41-7.51h0l3.46,7.51Z" transform="translate(0 0)" style="fill:#010101;stroke:#010101;stroke-miterlimit:10"/><path d="M587.17,732.9c4-1.59,6.73-5,6.73-9.15a9.9,9.9,0,0,0-9.92-9.83H570.37a.86.86,0,0,0-.86.87v30.13a.86.86,0,0,0,.86.86h5.42a.89.89,0,0,0,.86-.86V733.31h3.14l6.06,12.06a.82.82,0,0,0,.73.41h6a.86.86,0,0,0,.77-1.32Zm-3.78-5.37h-6.74v-7.1h6.74a3.49,3.49,0,0,1,3.46,3.46A3.65,3.65,0,0,1,583.39,727.53Z" transform="translate(0 0)" style="fill:#010101;stroke:#010101;stroke-miterlimit:10"/><path d="M254.69,780.94H253.1a.87.87,0,0,0-.87.87v24.26h-.09l-20.53-25.58h-1.13a.85.85,0,0,0-.87.82v30.63a.89.89,0,0,0,.87.86h1.59a.85.85,0,0,0,.86-.86V787.18h0l20.89,26.08h.82a.85.85,0,0,0,.87-.82V781.81A.9.9,0,0,0,254.69,780.94Z" transform="translate(0 0)" style="fill:#010101"/><path d="M276.32,781a.82.82,0,0,0-.78-.5h-.45a.82.82,0,0,0-.78.5l-13.83,30.63a.8.8,0,0,0,.77,1.18h1.82a.83.83,0,0,0,.77-.5l3.33-7.51h16.16l3.36,7.51a.85.85,0,0,0,.78.5h1.82a.8.8,0,0,0,.77-1.18Zm-7.88,21L275.09,787h.36c2.23,5,4.42,10,6.65,14.93Z" transform="translate(0 0)" style="fill:#010101"/><path d="M295.89,780.94h1.82a.87.87,0,0,1,.87.87v30.13a.86.86,0,0,1-.86.86h-1.82a.86.86,0,0,1-.86-.86V781.81A.87.87,0,0,1,295.89,780.94Z" style="fill:#010101"/><path d="M324.48,809.76H311.37v-28a.9.9,0,0,0-.86-.87h-1.78a.86.86,0,0,0-.86.87v30.13a.85.85,0,0,0,.86.86h15.75a.85.85,0,0,0,.86-.86v-1.32A.85.85,0,0,0,324.48,809.76Z" transform="translate(0 0)" style="fill:#010101"/><path d="M337.77,795c-3.82-1.59-6.14-3.37-6.14-6.42,0-1.91,1.46-5,6.28-5,2.78,0,5.64,1.91,6,2.09a1,1,0,0,0,1.6-.41c.18-.27.36-.59.54-.86a1,1,0,0,0-.27-1.55,14.88,14.88,0,0,0-7.78-2.32c-7.24,0-9.7,5-9.7,8.1,0,5.19,3,7.24,8,9.42,5.24,2.19,8,4,8,7.19,0,2.69-2.42,5-6.1,5-4.05,0-7.38-3.19-7.69-3.46-.64-.55-1.14-.18-1.6.41-.23.27-.45.59-.68.86a1,1,0,0,0,.27,1.55,14.83,14.83,0,0,0,9.61,3.69c5.32,0,9.83-3.46,9.83-8.19C347.88,799.79,343.92,797.47,337.77,795Z" transform="translate(0 0)" style="fill:#010101"/><path d="M367.91,793.55a4.91,4.91,0,0,0-4.78,5,4.84,4.84,0,0,0,4.78,4.78,4.9,4.9,0,0,0,5-4.78A5,5,0,0,0,367.91,793.55Z" transform="translate(0 0)" style="fill:#010101"/><path d="M407.42,809.76H394.31v-28a.9.9,0,0,0-.86-.87h-1.78a.86.86,0,0,0-.86.87v30.13a.85.85,0,0,0,.86.86h15.75a.86.86,0,0,0,.87-.86v-1.32A.86.86,0,0,0,407.42,809.76Z" transform="translate(0 0)" style="fill:#010101"/><path d="M426,781a.81.81,0,0,0-.77-.5h-.46a.81.81,0,0,0-.77.5L410.2,811.62a.8.8,0,0,0,.78,1.18h1.82a.83.83,0,0,0,.77-.5l3.32-7.51h16.16l3.37,7.51a.83.83,0,0,0,.77.5H439a.8.8,0,0,0,.78-1.18Zm-7.87,21L424.81,787h.37c2.23,5,4.41,10,6.64,14.93Z" transform="translate(0 0)" style="fill:#010101"/><path d="M452.31,795c-3.83-1.59-6.15-3.37-6.15-6.42,0-1.91,1.46-5,6.28-5,2.78,0,5.65,1.91,6,2.09a1,1,0,0,0,1.59-.41c.18-.27.37-.59.55-.86a1,1,0,0,0-.28-1.55,14.88,14.88,0,0,0-7.78-2.32c-7.24,0-9.69,5-9.69,8.1,0,5.19,3,7.24,8,9.42,5.23,2.19,8,4,8,7.19,0,2.69-2.41,5-6.1,5-4.05,0-7.37-3.19-7.69-3.46-.64-.55-1.14-.18-1.59.41-.23.27-.46.59-.69.86a1,1,0,0,0,.28,1.55,14.8,14.8,0,0,0,9.6,3.69c5.33,0,9.83-3.46,9.83-8.19C462.41,799.79,458.45,797.47,452.31,795Z" transform="translate(0 0)" style="fill:#010101"/><path d="M493.64,780.94h-1.77a.87.87,0,0,0-.87.87V795.1H472.52V781.81a.86.86,0,0,0-.86-.87h-1.78a.9.9,0,0,0-.86.87v30.13a.89.89,0,0,0,.86.86h1.78a.85.85,0,0,0,.86-.86V798.15H491v13.79a.86.86,0,0,0,.87.86h1.77a.89.89,0,0,0,.87-.86V781.81A.9.9,0,0,0,493.64,780.94Z" transform="translate(0 0)" style="fill:#010101"/><path d="M522.6,780.94H504.66a.86.86,0,0,0-.86.87v30.13a.85.85,0,0,0,.86.86H522.6a.85.85,0,0,0,.86-.86v-1.32a.85.85,0,0,0-.86-.86H507.3V798.15h13.07a.87.87,0,0,0,.86-.87V796a.89.89,0,0,0-.86-.86H507.3V784h15.3a.86.86,0,0,0,.86-.86v-1.32A.86.86,0,0,0,522.6,780.94Z" transform="translate(0 0)" style="fill:#010101"/><path d="M538.3,795c-3.82-1.59-6.14-3.37-6.14-6.42,0-1.91,1.45-5,6.28-5,2.78,0,5.64,1.91,6,2.09a1,1,0,0,0,1.59-.41c.19-.27.37-.59.55-.86a1,1,0,0,0-.27-1.55,14.89,14.89,0,0,0-7.79-2.32c-7.23,0-9.69,5-9.69,8.1,0,5.19,3,7.24,8,9.42,5.24,2.19,8,4,8,7.19,0,2.69-2.42,5-6.1,5-4.06,0-7.38-3.19-7.7-3.46-.63-.55-1.13-.18-1.59.41-.23.27-.45.59-.68.86a1,1,0,0,0,.27,1.55,14.81,14.81,0,0,0,9.61,3.69c5.32,0,9.83-3.46,9.83-8.19C548.41,799.79,544.45,797.47,538.3,795Z" transform="translate(0 0)" style="fill:#010101"/><path d="M568.44,793.55a4.9,4.9,0,0,0-4.78,5,4.83,4.83,0,0,0,4.78,4.78,4.9,4.9,0,0,0,5-4.78A5,5,0,0,0,568.44,793.55Z" transform="translate(0 0)" style="fill:#010101"/><path d="M607,796.6a8.6,8.6,0,0,0,4.46-7.28c0-4.78-3.78-8.38-9.33-8.38h-10a.86.86,0,0,0-.86.87v30.13a.85.85,0,0,0,.86.86h10.38c5.87,0,9.92-3.68,9.92-8.78C612.5,799.83,609.45,797.6,607,796.6Zm-12.29-12.52h7.42c3.5,0,5.46,2.19,5.46,5.47s-2,5.68-5.46,5.68h-7.42Zm8.19,25.68h-8.28V798.38h7.51c3.55,0,6.51,2.36,6.51,5.59A5.62,5.62,0,0,1,602.94,809.76Z" transform="translate(0 0)" style="fill:#010101"/><path d="M642.37,790.64a9.79,9.79,0,0,0-9.93-9.7H620.65a.86.86,0,0,0-.86.87v30.13a.85.85,0,0,0,.86.86h1.78a.89.89,0,0,0,.86-.86V800.33H632l6,12.07a.78.78,0,0,0,.73.4h2.32a.85.85,0,0,0,.77-1.31l-6.23-11.57A10.16,10.16,0,0,0,642.37,790.64Zm-10.16,6.69h-8.83V784.27h8.83a6.53,6.53,0,1,1,0,13.06Z" transform="translate(0 0)" style="fill:#010101"/><path d="M663.9,780.49a16.39,16.39,0,1,0,16.39,16.43A16.31,16.31,0,0,0,663.9,780.49Zm0,29.58a13.2,13.2,0,1,1,13.2-13.15A13.19,13.19,0,0,1,663.9,810.07Z" transform="translate(0 0)" style="fill:#010101"/><path d="M721,780.94h-1.91a.94.94,0,0,0-.82.64l-6.19,23.58h-.18L704.14,781a.81.81,0,0,0-.77-.5h-.82a.76.76,0,0,0-.77.5l-7.61,24.17H694l-6.32-23.58a1,1,0,0,0-.82-.64h-1.92a.8.8,0,0,0-.82,1.09l8.61,30.59a.86.86,0,0,0,.82.64h.72a.94.94,0,0,0,.78-.5l7.74-24.63H703l7.88,24.63a.91.91,0,0,0,.77.5h.73a.87.87,0,0,0,.82-.64L721.8,782A.79.79,0,0,0,721,780.94Z" transform="translate(0 0)" style="fill:#010101"/><path d="M735.69,795c-3.82-1.59-6.14-3.37-6.14-6.42,0-1.91,1.45-5,6.28-5,2.77,0,5.64,1.91,6,2.09a1,1,0,0,0,1.59-.41c.19-.27.37-.59.55-.86a1,1,0,0,0-.27-1.55,14.93,14.93,0,0,0-7.79-2.32c-7.23,0-9.69,5-9.69,8.1,0,5.19,3,7.24,8,9.42,5.23,2.19,8,4,8,7.19,0,2.69-2.41,5-6.09,5-4.06,0-7.38-3.19-7.7-3.46-.63-.55-1.14-.18-1.59.41-.23.27-.46.59-.68.86a1,1,0,0,0,.27,1.55,14.8,14.8,0,0,0,9.6,3.69c5.33,0,9.84-3.46,9.84-8.19C745.8,799.79,741.84,797.47,735.69,795Z" transform="translate(0 0)" style="fill:#010101"/></svg>